<svg width="119" height="119" viewBox="0 0 119 119" fill="none" xmlns="http://www.w3.org/2000/svg">
<path d="M79.5507 14.0547L50.9697 33.7825C50.6221 34.1853 50.2542 34.57 49.8672 34.9351C48.9404 36.1943 48.5283 37.7593 48.7146 39.3116V76.3618C48.7146 79.7028 48.7146 79.2016 48.2469 80.354C47.6121 81.9076 45.4238 83.9793 45.4238 84.447V85.7667L66.5383 71.3675C67.1213 70.9404 67.6058 70.3926 67.9577 69.7614C68.3095 69.1297 68.5201 68.4297 68.5759 67.7092V30.1744C68.7182 29.0419 69.102 27.9533 69.7013 26.9821C70.3011 26.0108 71.1022 25.1797 72.0506 24.545C74.0719 22.8746 76.0932 25.3134 77.446 27.2344L86.55 40.2471C87.0902 41.6803 87.3891 43.193 87.4351 44.7239C87.4021 45.7792 87.1065 46.8096 86.576 47.7223C86.0455 48.635 85.2958 49.4014 84.395 49.9523L77.1624 54.9637V58.4215C78.5985 60.0919 80.5029 60.6598 81.9731 62.1966C83.0752 63.2655 84.1611 63.8669 84.1611 65.4205V94.9037C84.1785 95.1354 84.1433 95.3682 84.0599 95.5847C83.976 95.8013 83.845 95.9967 83.6767 96.1564C83.3762 96.3902 82.4073 95.8391 81.873 95.5052L75.2412 91.6796C70.5571 88.8756 65.2148 87.3598 59.7562 87.2868C47.6121 87.2868 42.0997 89.458 35.468 92.7655C29.6846 95.4191 24.5529 99.308 20.4341 104.158C25.4374 101.331 30.9937 99.6214 36.7208 99.1466C43.7739 98.1668 50.9605 99.0476 57.5679 101.702C61.9402 103.057 66.0317 105.191 69.645 108L101.668 86.2842C102.296 85.8041 102.857 85.2422 103.338 84.6137C103.889 83.8954 103.889 78.6001 103.889 74.4411C103.889 70.9832 102.803 62.2801 96.3052 59.6576C93.0719 58.4939 89.7043 57.7419 86.2826 57.4192C85.4809 57.4192 84.6121 57.6697 83.9273 57.1185C83.4764 57.1185 83.092 56.8679 82.9919 56.4336C82.8917 55.9993 83.2425 55.565 83.6767 55.2643L98.8776 44.9577C100.125 44.0918 101.137 42.9275 101.82 41.5708C102.502 40.2141 102.835 38.7082 102.786 37.1902C102.786 36.1044 102.786 33.2647 99.446 28.4872L90.5087 15.9255C89.0055 13.8041 87.7193 12 85.1637 12C83.1175 12.0477 81.1443 12.77 79.5507 14.0547Z" fill="#14129F"/>
<path d="M44.8173 32.6967L70.1244 15.2406L69.0888 14.1382L66.7833 15.2406C64.0273 16.5436 62.4571 15.2406 58.9993 14.2217C54.7555 12.9359 50.3667 12.1895 45.9365 12C42.6457 12 31.9716 13.3029 25.0226 18.1472C25.0226 18.1472 20.6795 21.154 15 25.0962L15.7016 26.015L17.2384 25.0962C20.5793 23.0917 29.3157 22.3066 32.6732 22.8578C39.355 24.0271 43.7315 26.1987 44.8173 27.2511C45.9031 28.3034 44.5333 28.9215 43.7315 29.4895L26.8267 41.1825C26.1211 41.6154 25.5758 42.2662 25.2732 43.0367C25.044 44.1352 24.9375 45.2557 24.9558 46.3776V77.4477C25.0887 78.8421 24.8764 80.2474 24.3378 81.5401C23.7197 83.2106 21.6817 85.0652 21.6817 85.6162V86.7687L40.9252 73.6725C41.4315 73.3969 41.8605 72.9985 42.1728 72.514C42.4852 72.0295 42.6707 71.4747 42.7126 70.8998V37.0565C42.6149 36.4535 42.6624 35.8358 42.8513 35.2548C43.0401 34.6737 43.3648 34.1461 43.7984 33.7157C44.6002 32.9473 44.383 32.9974 44.8841 32.6299" fill="#14129F"/>
<path d="M74.8628 22.8846L78.0528 25.741V95.582L74.8628 93.427V22.8846Z" fill="#14129F"/>
</svg>
